<?xml version="1.0" standalone="no"?><!-- Generator: Gravit.io --><svg xmlns="http://www.w3.org/2000/svg" xmlns:xlink="http://www.w3.org/1999/xlink" style="isolation:isolate" viewBox="775 343 225 199.679" width="225" height="199.679"><g id="gears_red"><polygon points="982,524.679,793,524.679,887.5,361" fill="rgb(231,35,39)" vector-effect="non-scaling-stroke" stroke-width="12" stroke="rgb(176,171,166)" stroke-linejoin="miter" stroke-linecap="square" stroke-miterlimit="3"/><path d=" M 902.651 511.419 L 930.934 526.892 L 925.348 490.737 L 960.08 483.928 L 937.131 463.664 L 960.068 442.035 L 923.814 436.152 L 928.187 400.07 L 901.486 415.832 L 888.368 388.104 L 871.967 419.994 L 838.577 404.488 L 845.528 435.699 L 814.92 439.63 L 839.701 464.6 L 815.088 491.077 L 847.126 494.131 L 841.228 525.406 L 873.032 509.352 L 890.181 540.174 L 902.651 511.419 Z " fill="rgb(176,171,166)"/><path d=" M 856.105 464.139 C 856.105 446.812 870.173 432.744 887.5 432.744 C 904.827 432.744 918.895 446.812 918.895 464.139 C 918.895 481.467 904.827 495.534 887.5 495.534 C 870.173 495.534 856.105 481.467 856.105 464.139 Z " fill="rgb(231,35,39)"/></g></svg>