<?xml version="1.0" standalone="no"?><!-- Generator: Gravit.io --><svg xmlns="http://www.w3.org/2000/svg" xmlns:xlink="http://www.w3.org/1999/xlink" style="isolation:isolate" viewBox="775 853 225 199.679" width="225" height="199.679"><g id="gears_yellow"><polygon points="982,1034.679,793,1034.679,887.5,871" fill="rgb(254,242,0)" vector-effect="non-scaling-stroke" stroke-width="12" stroke="rgb(176,171,166)" stroke-linejoin="miter" stroke-linecap="square" stroke-miterlimit="3"/><path d=" M 902.651 1021.419 L 930.934 1036.892 L 925.348 1000.737 L 960.08 993.928 L 937.131 973.664 L 960.068 952.035 L 923.814 946.152 L 928.187 910.07 L 901.486 925.832 L 888.368 898.104 L 871.967 929.994 L 838.577 914.488 L 845.528 945.699 L 814.92 949.63 L 839.701 974.6 L 815.088 1001.077 L 847.126 1004.131 L 841.228 1035.406 L 873.032 1019.352 L 890.181 1050.174 L 902.651 1021.419 Z " fill="rgb(176,171,166)"/><path d=" M 856.105 974.139 C 856.105 956.812 870.173 942.744 887.5 942.744 C 904.827 942.744 918.895 956.812 918.895 974.139 C 918.895 991.467 904.827 1005.534 887.5 1005.534 C 870.173 1005.534 856.105 991.467 856.105 974.139 Z " fill="rgb(254,242,0)"/></g></svg>