<?xml version="1.0" standalone="no"?><!-- Generator: Gravit.io --><svg xmlns="http://www.w3.org/2000/svg" xmlns:xlink="http://www.w3.org/1999/xlink" style="isolation:isolate" viewBox="775 602 225 199.679" width="225" height="199.679"><g id="gears_green"><polygon points="982,783.679,793,783.679,887.5,620" fill="rgb(12,163,82)" vector-effect="non-scaling-stroke" stroke-width="12" stroke="rgb(176,171,166)" stroke-linejoin="miter" stroke-linecap="square" stroke-miterlimit="3"/><path d=" M 902.651 770.419 L 930.934 785.892 L 925.348 749.737 L 960.08 742.928 L 937.131 722.664 L 960.068 701.035 L 923.814 695.152 L 928.187 659.07 L 901.486 674.832 L 888.368 647.104 L 871.967 678.994 L 838.577 663.488 L 845.528 694.699 L 814.92 698.63 L 839.701 723.6 L 815.088 750.077 L 847.126 753.131 L 841.228 784.406 L 873.032 768.352 L 890.181 799.174 L 902.651 770.419 Z " fill="rgb(176,171,166)"/><path d=" M 856.105 723.139 C 856.105 705.812 870.173 691.744 887.5 691.744 C 904.827 691.744 918.895 705.812 918.895 723.139 C 918.895 740.467 904.827 754.534 887.5 754.534 C 870.173 754.534 856.105 740.467 856.105 723.139 Z " fill="rgb(12,163,82)"/></g></svg>