<?xml version="1.0" standalone="no"?><!-- Generator: Gravit.io --><svg xmlns="http://www.w3.org/2000/svg" xmlns:xlink="http://www.w3.org/1999/xlink" style="isolation:isolate" viewBox="762.373 320.706 229.936 229.936" width="229.936" height="229.936"><g id="gears_red"><polygon points="971.841,530.174,782.841,530.174,877.341,341.174" fill="none" vector-effect="non-scaling-stroke" stroke-width="13.645" stroke="rgb(121,117,113)" stroke-linejoin="miter" stroke-linecap="square" stroke-miterlimit="3"/><path d=" M 892.874 511.419 L 922.803 526.892 L 916.892 490.737 L 953.645 483.928 L 929.361 463.664 L 953.633 442.035 L 915.269 436.152 L 919.896 400.07 L 891.641 415.832 L 877.759 388.104 L 860.404 419.994 L 825.071 404.488 L 832.426 435.699 L 800.037 439.63 L 826.26 464.6 L 800.215 491.077 L 834.118 494.131 L 827.876 525.406 L 861.531 509.352 L 879.678 540.174 L 892.874 511.419 Z  M 843.619 464.139 C 843.619 446.812 858.505 432.744 876.841 432.744 C 895.177 432.744 910.063 446.812 910.063 464.139 C 910.063 481.467 895.177 495.534 876.841 495.534 C 858.505 495.534 843.619 481.467 843.619 464.139 Z " fill-rule="evenodd" fill="rgb(121,117,113)"/></g></svg>