<?xml version="1.0" standalone="no"?><!-- Generator: Gravit.io --><svg xmlns="http://www.w3.org/2000/svg" xmlns:xlink="http://www.w3.org/1999/xlink" style="isolation:isolate" viewBox="451 110 375 332.798" width="375" height="332.798"><g id="gears"><polygon points="796,412.798,481,412.798,638.5,140" fill="rgb(11,85,164)" vector-effect="non-scaling-stroke" stroke-width="20" stroke="rgb(255,255,255)" stroke-linejoin="miter" stroke-linecap="square" stroke-miterlimit="3"/><path d=" M 663.752 390.699 L 710.89 416.486 L 701.58 356.228 L 759.467 344.881 L 721.218 311.107 L 759.447 275.058 L 699.024 265.254 L 706.311 205.116 L 661.809 231.387 L 639.946 185.174 L 612.612 238.323 L 556.962 212.48 L 568.546 264.499 L 517.533 271.051 L 558.835 312.666 L 517.813 356.796 L 571.211 361.885 L 561.379 414.009 L 614.387 387.253 L 642.968 438.624 L 663.752 390.699 Z " fill="rgb(255,255,255)"/><path d=" M 586.175 311.899 C 586.175 283.02 609.621 259.574 638.5 259.574 C 667.379 259.574 690.825 283.02 690.825 311.899 C 690.825 340.778 667.379 364.224 638.5 364.224 C 609.621 364.224 586.175 340.778 586.175 311.899 Z " fill="rgb(11,85,164)"/></g></svg>