<?xml version="1.0" standalone="no"?><!-- Generator: Gravit.io --><svg xmlns="http://www.w3.org/2000/svg" xmlns:xlink="http://www.w3.org/1999/xlink" style="isolation:isolate" viewBox="775 92 225 199.679" width="225" height="199.679"><g id="gears_blue"><polygon points="982,273.679,793,273.679,887.5,110" fill="rgb(11,85,164)" vector-effect="non-scaling-stroke" stroke-width="12" stroke="rgb(176,171,166)" stroke-linejoin="miter" stroke-linecap="square" stroke-miterlimit="3"/><path d=" M 902.651 260.419 L 930.934 275.892 L 925.348 239.737 L 960.08 232.928 L 937.131 212.664 L 960.068 191.035 L 923.814 185.152 L 928.187 149.07 L 901.486 164.832 L 888.368 137.104 L 871.967 168.994 L 838.577 153.488 L 845.528 184.699 L 814.92 188.63 L 839.701 213.6 L 815.088 240.077 L 847.126 243.131 L 841.228 274.406 L 873.032 258.352 L 890.181 289.174 L 902.651 260.419 Z " fill="rgb(176,171,166)"/><path d=" M 856.105 213.139 C 856.105 195.812 870.173 181.744 887.5 181.744 C 904.827 181.744 918.895 195.812 918.895 213.139 C 918.895 230.467 904.827 244.534 887.5 244.534 C 870.173 244.534 856.105 230.467 856.105 213.139 Z " fill="rgb(11,85,164)"/></g></svg>