<?xml version="1.0" standalone="no"?><!-- Generator: Gravit.io --><svg xmlns="http://www.w3.org/2000/svg" xmlns:xlink="http://www.w3.org/1999/xlink" style="isolation:isolate" viewBox="1431.712 354.871 163.576 175.288" width="163.576" height="175.288"><g id="moon_red"><path d=" M 1437 448.371 C 1437 406.15 1471.279 371.871 1513.5 371.871 C 1555.721 371.871 1590 406.15 1590 448.371 C 1590 490.593 1555.721 524.871 1513.5 524.871 C 1471.279 524.871 1437 490.593 1437 448.371 Z " fill="none" vector-effect="non-scaling-stroke" stroke-width="10.576" stroke="rgb(121,117,113)" stroke-linejoin="miter" stroke-linecap="square" stroke-miterlimit="3"/><path d=" M 1476.769 409.705 C 1486.423 400.309 1499.604 394.518 1514.128 394.518 C 1543.697 394.518 1567.705 418.525 1567.705 448.095 C 1567.705 477.567 1543.856 501.513 1514.421 501.67 C 1523.361 491.894 1528.816 478.88 1528.816 464.601 C 1528.816 435.242 1505.752 411.227 1476.769 409.705 Z " fill="rgb(121,117,113)"/></g></svg>