<?xml version="1.0" standalone="no"?><!-- Generator: Gravit.io --><svg xmlns="http://www.w3.org/2000/svg" xmlns:xlink="http://www.w3.org/1999/xlink" style="isolation:isolate" viewBox="1390 123 297 304" width="297" height="304"><g id="moon"><path d=" M 1400 278.5 C 1400 202.06 1462.06 140 1538.5 140 C 1614.94 140 1677 202.06 1677 278.5 C 1677 354.94 1614.94 417 1538.5 417 C 1462.06 417 1400 354.94 1400 278.5 Z " fill="rgb(254,242,0)" vector-effect="non-scaling-stroke" stroke-width="20" stroke="rgb(255,255,255)" stroke-linejoin="miter" stroke-linecap="square" stroke-miterlimit="3"/><path d=" M 1472 208.497 C 1489.479 191.484 1513.343 181 1539.636 181 C 1593.171 181 1636.635 224.464 1636.635 277.999 C 1636.635 331.357 1593.459 374.71 1540.168 374.996 C 1556.352 357.296 1566.228 333.734 1566.228 307.884 C 1566.228 254.73 1524.472 211.252 1472 208.497 Z " fill="rgb(255,255,255)"/></g></svg>