<?xml version="1.0" standalone="no"?><!-- Generator: Gravit.io --><svg xmlns="http://www.w3.org/2000/svg" xmlns:xlink="http://www.w3.org/1999/xlink" style="isolation:isolate" viewBox="1431.256 583.86 177.669 188.925" width="177.669" height="188.925"><g id="moon_green"><path d=" M 1437 683.95 C 1437 638.091 1474.232 600.86 1520.091 600.86 C 1565.95 600.86 1603.182 638.091 1603.182 683.95 C 1603.182 729.809 1565.95 767.041 1520.091 767.041 C 1474.232 767.041 1437 729.809 1437 683.95 Z " fill="rgb(12,163,82)" vector-effect="non-scaling-stroke" stroke-width="11.487" stroke="rgb(176,171,166)" stroke-linejoin="miter" stroke-linecap="square" stroke-miterlimit="3"/><path d=" M 1480.195 641.953 C 1490.681 631.747 1504.998 625.457 1520.772 625.457 C 1552.89 625.457 1578.965 651.532 1578.965 683.65 C 1578.965 715.661 1553.062 741.67 1521.091 741.841 C 1530.801 731.223 1536.726 717.087 1536.726 701.579 C 1536.726 669.69 1511.675 643.606 1480.195 641.953 Z " fill="rgb(176,171,166)"/></g></svg>