<?xml version="1.0" standalone="no"?><!-- Generator: Gravit.io --><svg xmlns="http://www.w3.org/2000/svg" xmlns:xlink="http://www.w3.org/1999/xlink" style="isolation:isolate" viewBox="1431.256 818.549 177.669 188.925" width="177.669" height="188.925"><g id="moon_yellow"><path d=" M 1437 918.64 C 1437 872.781 1474.232 835.549 1520.091 835.549 C 1565.95 835.549 1603.182 872.781 1603.182 918.64 C 1603.182 964.499 1565.95 1001.731 1520.091 1001.731 C 1474.232 1001.731 1437 964.499 1437 918.64 Z " fill="rgb(254,242,0)" vector-effect="non-scaling-stroke" stroke-width="11.487" stroke="rgb(176,171,166)" stroke-linejoin="miter" stroke-linecap="square" stroke-miterlimit="3"/><path d=" M 1480.195 876.643 C 1490.681 866.436 1504.998 860.146 1520.772 860.146 C 1552.89 860.146 1578.965 886.222 1578.965 918.339 C 1578.965 950.351 1553.062 976.36 1521.091 976.531 C 1530.801 965.912 1536.726 951.777 1536.726 936.268 C 1536.726 904.38 1511.675 878.296 1480.195 876.643 Z " fill="rgb(176,171,166)"/></g></svg>