<?xml version="1.0" standalone="no"?><!-- Generator: Gravit.io --><svg xmlns="http://www.w3.org/2000/svg" xmlns:xlink="http://www.w3.org/1999/xlink" style="isolation:isolate" viewBox="1431.001 107 178.18 189.181" width="178.18" height="189.181"><g id="moon_blue"><path d=" M 1437 207.091 C 1437 161.232 1474.232 124 1520.091 124 C 1565.95 124 1603.182 161.232 1603.182 207.091 C 1603.182 252.95 1565.95 290.182 1520.091 290.182 C 1474.232 290.182 1437 252.95 1437 207.091 Z " fill="rgb(11,85,164)" vector-effect="non-scaling-stroke" stroke-width="11.999" stroke="rgb(176,171,166)" stroke-linejoin="miter" stroke-linecap="square" stroke-miterlimit="3"/><path d=" M 1480.195 165.093 C 1490.681 154.887 1504.998 148.597 1520.772 148.597 C 1552.89 148.597 1578.965 174.673 1578.965 206.79 C 1578.965 238.801 1553.062 264.81 1521.091 264.982 C 1530.801 254.363 1536.726 240.228 1536.726 224.719 C 1536.726 192.83 1511.675 166.747 1480.195 165.093 Z " fill="rgb(176,171,166)"/></g></svg>