<?xml version="1.0" standalone="no"?><!-- Generator: Gravit.io --><svg xmlns="http://www.w3.org/2000/svg" xmlns:xlink="http://www.w3.org/1999/xlink" style="isolation:isolate" viewBox="1092.769 568 265.731 265.731" width="265.731" height="265.731"><g id="planet_green"><rect x="1146.534" y="621.765" width="158.202" height="158.202" transform="matrix(0.707,0.707,-0.707,0.707,854.567,-661.376)" fill="rgb(12,163,82)" vector-effect="non-scaling-stroke" stroke-width="14" stroke="rgb(176,171,166)" stroke-linejoin="miter" stroke-linecap="square" stroke-miterlimit="3"/><path d=" M 1185.529 700.865 C 1185.529 678.731 1203.5 660.76 1225.635 660.76 C 1247.769 660.76 1265.74 678.731 1265.74 700.865 C 1265.74 723 1247.769 740.971 1225.635 740.971 C 1203.5 740.971 1185.529 723 1185.529 700.865 Z " fill="rgb(176,171,166)" vector-effect="non-scaling-stroke" stroke-width="0.7" stroke="rgb(176,171,166)" stroke-linejoin="miter" stroke-linecap="square" stroke-miterlimit="3"/><path d=" M 1139.027 697.356 C 1139.027 685.356 1177.834 675.614 1225.635 675.614 C 1273.435 675.614 1312.242 685.356 1312.242 697.356 C 1312.242 709.356 1273.435 719.098 1225.635 719.098 C 1177.834 719.098 1139.027 709.356 1139.027 697.356 Z " fill="none" vector-effect="non-scaling-stroke" stroke-width="9.8" stroke="rgb(176,171,166)" stroke-linejoin="miter" stroke-linecap="square" stroke-miterlimit="3"/><path d=" M 1265.74 700.865 C 1265.74 678.731 1247.769 660.76 1225.635 660.76 C 1203.5 660.76 1185.529 678.731 1185.529 700.865 L 1265.74 700.865 Z " fill="rgb(176,171,166)"/></g></svg>