<?xml version="1.0" standalone="no"?><!-- Generator: Gravit.io --><svg xmlns="http://www.w3.org/2000/svg" xmlns:xlink="http://www.w3.org/1999/xlink" style="isolation:isolate" viewBox="1062.194 551.435 379.612 379.612" width="379.612" height="379.612"><g id="planet"><rect x="1139" y="628.241" width="226" height="226" transform="matrix(0.707,0.707,-0.707,0.707,890.839,-668.193)" fill="rgb(231,35,39)" vector-effect="non-scaling-stroke" stroke-width="20" stroke="rgb(255,255,255)" stroke-linejoin="miter" stroke-linecap="square" stroke-miterlimit="3"/><path d=" M 1194.708 741.241 C 1194.708 709.62 1220.379 683.948 1252 683.948 C 1283.621 683.948 1309.292 709.62 1309.292 741.241 C 1309.292 772.861 1283.621 798.533 1252 798.533 C 1220.379 798.533 1194.708 772.861 1194.708 741.241 Z " fill="rgb(255,255,255)"/><path d=" M 1128.276 736.227 C 1128.276 719.085 1183.715 705.168 1252 705.168 C 1320.285 705.168 1375.724 719.085 1375.724 736.227 C 1375.724 753.37 1320.285 767.287 1252 767.287 C 1183.715 767.287 1128.276 753.37 1128.276 736.227 Z " fill="none" vector-effect="non-scaling-stroke" stroke-width="14" stroke="rgb(255,255,255)" stroke-linejoin="miter" stroke-linecap="square" stroke-miterlimit="3"/><path d=" M 1309.292 741.241 C 1309.292 709.62 1283.621 683.948 1252 683.948 C 1220.379 683.948 1194.708 709.62 1194.708 741.241 L 1309.292 741.241 Z " fill="rgb(255,255,255)"/></g></svg>