<?xml version="1.0" standalone="no"?><!-- Generator: Gravit.io --><svg xmlns="http://www.w3.org/2000/svg" xmlns:xlink="http://www.w3.org/1999/xlink" style="isolation:isolate" viewBox="1092.769 58 265.731 265.731" width="265.731" height="265.731"><g id="planet_blue"><rect x="1146.534" y="111.765" width="158.202" height="158.202" transform="matrix(0.707,0.707,-0.707,0.707,493.942,-810.751)" fill="rgb(11,85,164)" vector-effect="non-scaling-stroke" stroke-width="14" stroke="rgb(176,171,166)" stroke-linejoin="miter" stroke-linecap="square" stroke-miterlimit="3"/><path d=" M 1185.529 190.865 C 1185.529 168.731 1203.5 150.76 1225.635 150.76 C 1247.769 150.76 1265.74 168.731 1265.74 190.865 C 1265.74 213 1247.769 230.971 1225.635 230.971 C 1203.5 230.971 1185.529 213 1185.529 190.865 Z " fill="rgb(176,171,166)" vector-effect="non-scaling-stroke" stroke-width="0.7" stroke="rgb(176,171,166)" stroke-linejoin="miter" stroke-linecap="square" stroke-miterlimit="3"/><path d=" M 1139.027 187.356 C 1139.027 175.356 1177.834 165.614 1225.635 165.614 C 1273.435 165.614 1312.242 175.356 1312.242 187.356 C 1312.242 199.356 1273.435 209.098 1225.635 209.098 C 1177.834 209.098 1139.027 199.356 1139.027 187.356 Z " fill="none" vector-effect="non-scaling-stroke" stroke-width="9.8" stroke="rgb(176,171,166)" stroke-linejoin="miter" stroke-linecap="square" stroke-miterlimit="3"/><path d=" M 1265.74 190.865 C 1265.74 168.731 1247.769 150.76 1225.635 150.76 C 1203.5 150.76 1185.529 168.731 1185.529 190.865 L 1265.74 190.865 Z " fill="rgb(176,171,166)"/></g></svg>