<?xml version="1.0" standalone="no"?><!-- Generator: Gravit.io --><svg xmlns="http://www.w3.org/2000/svg" xmlns:xlink="http://www.w3.org/1999/xlink" style="isolation:isolate" viewBox="1092.769 819 265.731 265.731" width="265.731" height="265.731"><g id="planet_yellow"><rect x="1146.534" y="872.765" width="158.202" height="158.202" transform="matrix(0.707,0.707,-0.707,0.707,1032.051,-587.86)" fill="rgb(254,242,0)" vector-effect="non-scaling-stroke" stroke-width="14" stroke="rgb(176,171,166)" stroke-linejoin="miter" stroke-linecap="square" stroke-miterlimit="3"/><path d=" M 1185.529 951.865 C 1185.529 929.731 1203.5 911.76 1225.635 911.76 C 1247.769 911.76 1265.74 929.731 1265.74 951.865 C 1265.74 974 1247.769 991.971 1225.635 991.971 C 1203.5 991.971 1185.529 974 1185.529 951.865 Z " fill="rgb(176,171,166)" vector-effect="non-scaling-stroke" stroke-width="0.7" stroke="rgb(176,171,166)" stroke-linejoin="miter" stroke-linecap="square" stroke-miterlimit="3"/><path d=" M 1139.027 948.356 C 1139.027 936.356 1177.834 926.614 1225.635 926.614 C 1273.435 926.614 1312.242 936.356 1312.242 948.356 C 1312.242 960.356 1273.435 970.098 1225.635 970.098 C 1177.834 970.098 1139.027 960.356 1139.027 948.356 Z " fill="none" vector-effect="non-scaling-stroke" stroke-width="9.8" stroke="rgb(176,171,166)" stroke-linejoin="miter" stroke-linecap="square" stroke-miterlimit="3"/><path d=" M 1265.74 951.865 C 1265.74 929.731 1247.769 911.76 1225.635 911.76 C 1203.5 911.76 1185.529 929.731 1185.529 951.865 L 1265.74 951.865 Z " fill="rgb(176,171,166)"/></g></svg>