<?xml version="1.0" standalone="no"?><!-- Generator: Gravit.io --><svg xmlns="http://www.w3.org/2000/svg" xmlns:xlink="http://www.w3.org/1999/xlink" style="isolation:isolate" viewBox="1092.769 309 265.731 265.731" width="265.731" height="265.731"><g id="planet_red"><rect x="1146.534" y="362.765" width="158.202" height="158.202" transform="matrix(0.707,0.707,-0.707,0.707,671.426,-737.235)" fill="rgb(231,35,39)" vector-effect="non-scaling-stroke" stroke-width="14" stroke="rgb(176,171,166)" stroke-linejoin="miter" stroke-linecap="square" stroke-miterlimit="3"/><path d=" M 1185.529 441.865 C 1185.529 419.731 1203.5 401.76 1225.635 401.76 C 1247.769 401.76 1265.74 419.731 1265.74 441.865 C 1265.74 464 1247.769 481.971 1225.635 481.971 C 1203.5 481.971 1185.529 464 1185.529 441.865 Z " fill="rgb(176,171,166)" vector-effect="non-scaling-stroke" stroke-width="0.7" stroke="rgb(176,171,166)" stroke-linejoin="miter" stroke-linecap="square" stroke-miterlimit="3"/><path d=" M 1139.027 438.356 C 1139.027 426.356 1177.834 416.614 1225.635 416.614 C 1273.435 416.614 1312.242 426.356 1312.242 438.356 C 1312.242 450.356 1273.435 460.098 1225.635 460.098 C 1177.834 460.098 1139.027 450.356 1139.027 438.356 Z " fill="none" vector-effect="non-scaling-stroke" stroke-width="9.8" stroke="rgb(176,171,166)" stroke-linejoin="miter" stroke-linecap="square" stroke-miterlimit="3"/><path d=" M 1265.74 441.865 C 1265.74 419.731 1247.769 401.76 1225.635 401.76 C 1203.5 401.76 1185.529 419.731 1185.529 441.865 L 1265.74 441.865 Z " fill="rgb(176,171,166)"/></g></svg>