<?xml version="1.0" standalone="no"?><!-- Generator: Gravit.io --><svg xmlns="http://www.w3.org/2000/svg" xmlns:xlink="http://www.w3.org/1999/xlink" style="isolation:isolate" viewBox="943 438 276 276" width="276" height="276"><path d=" M 943 576.5 C 943 500.06 1005.06 438 1081.5 438 C 1157.94 438 1220 500.06 1220 576.5 C 1220 652.94 1157.94 715 1081.5 715 C 1005.06 715 943 652.94 943 576.5 Z " fill="rgb(208,54,27)"/><path d=" M 1015 506.497 C 1032.479 489.484 1056.343 479 1082.636 479 C 1136.171 479 1179.635 522.464 1179.635 575.999 C 1179.635 629.357 1136.459 672.71 1083.168 672.996 C 1099.352 655.296 1109.228 631.734 1109.228 605.884 C 1109.228 552.73 1067.472 509.252 1015 506.497 Z " fill="rgb(255,255,255)"/></svg>